<svg width="40" height="40" viewBox="0 0 40 40" fill="none" xmlns="http://www.w3.org/2000/svg">
<g clip-path="url(#clip0_4_441)">
<mask id="mask0_4_441" style="mask-type:luminance" maskUnits="userSpaceOnUse" x="0" y="0" width="40" height="40">
<path d="M25 0H15C6.71573 0 0 6.71573 0 15V25C0 33.2843 6.71573 40 15 40H25C33.2843 40 40 33.2843 40 25V15C40 6.71573 33.2843 0 25 0Z" fill="white"/>
</mask>
<g mask="url(#mask0_4_441)">
<path d="M40 0H0V40H40V0Z" fill="#7757FF"/>
<path d="M23.84 26.3392C24.2815 26.1653 24.7093 25.9585 25.12 25.7208V28.96C25.12 29.1297 25.0526 29.2925 24.9325 29.4125C24.8125 29.5326 24.6497 29.6 24.48 29.6C24.3103 29.6 24.1475 29.5326 24.0275 29.4125C23.9074 29.2925 23.84 29.1297 23.84 28.96V26.3392ZM24.7808 19.2648L20.3008 16.8752C20.1513 16.7989 19.9779 16.7843 19.8177 16.8346C19.6576 16.885 19.5237 16.9962 19.4448 17.1443C19.3659 17.2925 19.3484 17.4657 19.3959 17.6266C19.4435 17.7876 19.5524 17.9234 19.6992 18.0048L23.44 20L24.8 19.2752L24.7808 19.2648ZM29.9008 16.8752L20.3008 11.7552C20.2082 11.7059 20.1049 11.6801 20 11.6801C19.8951 11.6801 19.7918 11.7059 19.6992 11.7552L10.0992 16.8752C9.9968 16.9298 9.91117 17.0112 9.85146 17.1106C9.79174 17.2101 9.7602 17.324 9.7602 17.44C9.7602 17.556 9.79174 17.6699 9.85146 17.7694C9.91117 17.8688 9.9968 17.9502 10.0992 18.0048L12.32 19.1896V23.0632C12.3193 23.3776 12.435 23.6811 12.6448 23.9152C13.6928 25.0824 16.0408 27.04 20 27.04C21.3128 27.0509 22.6157 26.8131 23.84 26.3392V20.2136L23.44 20L20 21.8344L13.2664 18.24L11.76 17.44L20 13.0456L28.24 17.44L26.7376 18.24H26.7328L24.8 19.2752C24.8973 19.3314 24.9781 19.4122 25.0343 19.5095C25.0905 19.6068 25.12 19.7172 25.12 19.8296V25.7208C25.9546 25.239 26.7087 24.6298 27.3552 23.9152C27.565 23.6811 27.6807 23.3776 27.68 23.0632V19.1896L29.9008 18.0048C30.0032 17.9502 30.0888 17.8688 30.1485 17.7694C30.2083 17.6699 30.2398 17.556 30.2398 17.44C30.2398 17.324 30.2083 17.2101 30.1485 17.1106C30.0888 17.0112 30.0032 16.9298 29.9008 16.8752Z" fill="white"/>
</g>
</g>
<defs>
<clipPath id="clip0_4_441">
<rect width="40" height="40" fill="white"/>
</clipPath>
</defs>
</svg>
