<svg width="275" height="40" viewBox="0 0 275 40" fill="none" xmlns="http://www.w3.org/2000/svg">
<mask id="mask0_4_357" style="mask-type:luminance" maskUnits="userSpaceOnUse" x="0" y="0" width="40" height="40">
<path d="M25 0H15C6.71573 0 0 6.71573 0 15V25C0 33.2843 6.71573 40 15 40H25C33.2843 40 40 33.2843 40 25V15C40 6.71573 33.2843 0 25 0Z" fill="white"/>
</mask>
<g mask="url(#mask0_4_357)">
<path d="M40 0H0V40H40V0Z" fill="#7757FF"/>
<path d="M23.84 26.3392C24.2815 26.1653 24.7093 25.9585 25.12 25.7208V28.96C25.12 29.1297 25.0526 29.2925 24.9325 29.4125C24.8125 29.5326 24.6497 29.6 24.48 29.6C24.3103 29.6 24.1475 29.5326 24.0275 29.4125C23.9074 29.2925 23.84 29.1297 23.84 28.96V26.3392ZM24.7808 19.2648L20.3008 16.8752C20.1513 16.7989 19.9779 16.7843 19.8177 16.8346C19.6576 16.885 19.5237 16.9962 19.4448 17.1443C19.3659 17.2925 19.3484 17.4657 19.3959 17.6266C19.4435 17.7876 19.5524 17.9234 19.6992 18.0048L23.44 20L24.8 19.2752L24.7808 19.2648ZM29.9008 16.8752L20.3008 11.7552C20.2082 11.7059 20.1049 11.6801 20 11.6801C19.8951 11.6801 19.7918 11.7059 19.6992 11.7552L10.0992 16.8752C9.9968 16.9298 9.91117 17.0112 9.85146 17.1106C9.79174 17.2101 9.7602 17.324 9.7602 17.44C9.7602 17.556 9.79174 17.6699 9.85146 17.7694C9.91117 17.8688 9.9968 17.9502 10.0992 18.0048L12.32 19.1896V23.0632C12.3193 23.3776 12.435 23.6811 12.6448 23.9152C13.6928 25.0824 16.0408 27.04 20 27.04C21.3128 27.0509 22.6157 26.8131 23.84 26.3392V20.2136L23.44 20L20 21.8344L13.2664 18.24L11.76 17.44L20 13.0456L28.24 17.44L26.7376 18.24H26.7328L24.8 19.2752C24.8973 19.3314 24.9781 19.4122 25.0343 19.5095C25.0905 19.6068 25.12 19.7172 25.12 19.8296V25.7208C25.9546 25.239 26.7087 24.6298 27.3552 23.9152C27.565 23.6811 27.6807 23.3776 27.68 23.0632V19.1896L29.9008 18.0048C30.0032 17.9502 30.0888 17.8688 30.1485 17.7694C30.2083 17.6699 30.2398 17.556 30.2398 17.44C30.2398 17.324 30.2083 17.2101 30.1485 17.1106C30.0888 17.0112 30.0032 16.9298 29.9008 16.8752Z" fill="white"/>
</g>
<path d="M54.14 29.29C52.4333 29.29 50.97 28.9133 49.75 28.16C48.5367 27.4067 47.6133 26.3733 46.98 25.06C46.3467 23.7533 46.03 22.2733 46.03 20.62C46.03 18.96 46.3433 17.4733 46.97 16.16C47.59 14.8467 48.5067 13.81 49.72 13.05C50.9267 12.29 52.4 11.91 54.14 11.91C56.1267 11.91 57.7533 12.4 59.02 13.38C60.28 14.3533 61.07 15.7133 61.39 17.46H58.39C58.17 16.5133 57.7 15.76 56.98 15.2C56.26 14.64 55.3067 14.36 54.12 14.36C52.9867 14.36 52.0267 14.6233 51.24 15.15C50.4533 15.6767 49.8533 16.4067 49.44 17.34C49.0267 18.2667 48.82 19.36 48.82 20.62C48.82 21.8733 49.0267 22.9667 49.44 23.9C49.8533 24.8333 50.4567 25.56 51.25 26.08C52.0433 26.6 53 26.86 54.12 26.86C55.3067 26.86 56.26 26.5933 56.98 26.06C57.7 25.5267 58.17 24.8033 58.39 23.89H61.39C61.07 25.5833 60.28 26.9067 59.02 27.86C57.7533 28.8133 56.1267 29.29 54.14 29.29ZM66 29.29C65.2667 29.29 64.5833 29.15 63.95 28.87C63.3167 28.59 62.8133 28.1767 62.44 27.63C62.06 27.09 61.87 26.4433 61.87 25.69C61.87 24.79 62.0933 24.06 62.54 23.5C62.9933 22.94 63.6033 22.53 64.37 22.27C65.1367 22.0033 65.9833 21.87 66.91 21.87H69.89C69.89 21.23 69.7867 20.7067 69.58 20.3C69.3667 19.8933 69.0767 19.59 68.71 19.39C68.3433 19.19 67.9133 19.09 67.42 19.09C66.78 19.09 66.22 19.2333 65.74 19.52C65.26 19.8067 64.9633 20.28 64.85 20.94H62.11C62.19 20.0733 62.4833 19.3333 62.99 18.72C63.49 18.1 64.1333 17.6267 64.92 17.3C65.7067 16.9733 66.5467 16.81 67.44 16.81C68.5933 16.81 69.55 17.02 70.31 17.44C71.07 17.8667 71.6467 18.4567 72.04 19.21C72.4267 19.9633 72.62 20.8333 72.62 21.82V25.45C72.64 25.8833 72.75 26.1933 72.95 26.38C73.15 26.5733 73.4667 26.68 73.9 26.7V29C73.2267 29 72.65 28.9267 72.17 28.78C71.69 28.64 71.2933 28.4267 70.98 28.14C70.6667 27.8467 70.4133 27.47 70.22 27.01C69.84 27.65 69.2767 28.19 68.53 28.63C67.79 29.07 66.9467 29.29 66 29.29ZM66.7 27.08C67.32 27.08 67.8667 26.9333 68.34 26.64C68.8133 26.34 69.19 25.94 69.47 25.44C69.75 24.9333 69.89 24.3767 69.89 23.77V23.7H67.1C66.6867 23.7 66.2867 23.7533 65.9 23.86C65.52 23.9733 65.2167 24.1533 64.99 24.4C64.77 24.6533 64.66 24.9933 64.66 25.42C64.66 26 64.86 26.42 65.26 26.68C65.66 26.9467 66.14 27.08 66.7 27.08ZM77.21 29H74.5V17.1H77.14L77.18 18.58C77.58 17.9933 78.0933 17.55 78.72 17.25C79.3467 16.9567 80.0267 16.81 80.76 16.81C81.6733 16.81 82.5 16.9967 83.24 17.37C83.9867 17.75 84.56 18.34 84.96 19.14C85.3733 18.4 85.9367 17.8267 86.65 17.42C87.3633 17.0133 88.1433 16.81 88.99 16.81C89.9167 16.81 90.7467 16.9967 91.48 17.37C92.2067 17.75 92.7767 18.3233 93.19 19.09C93.61 19.8567 93.82 20.8233 93.82 21.99V29H91.13V22.35C91.13 21.3433 90.9 20.56 90.44 20C89.9867 19.44 89.3133 19.16 88.42 19.16C87.5067 19.16 86.7933 19.46 86.28 20.06C85.7667 20.66 85.51 21.4867 85.51 22.54V29H82.82V22.35C82.82 21.33 82.5867 20.5433 82.12 19.99C81.6467 19.4367 80.97 19.16 80.09 19.16C79.3033 19.16 78.6267 19.4367 78.06 19.99C77.4933 20.5433 77.21 21.3933 77.21 22.54V29ZM97.66 34.28H94.94V17.1H97.58L97.66 18.85C98.0867 18.2433 98.6533 17.75 99.36 17.37C100.067 16.9967 100.873 16.81 101.78 16.81C102.953 16.81 103.96 17.0867 104.8 17.64C105.64 18.1867 106.287 18.9333 106.74 19.88C107.193 20.8267 107.42 21.8733 107.42 23.02C107.42 24.1733 107.19 25.2267 106.73 26.18C106.263 27.1333 105.61 27.89 104.77 28.45C103.93 29.01 102.927 29.29 101.76 29.29C100.767 29.29 99.9233 29.0867 99.23 28.68C98.53 28.2667 98.0067 27.79 97.66 27.25V34.28ZM101.16 26.91C101.847 26.91 102.453 26.74 102.98 26.4C103.513 26.0533 103.927 25.5833 104.22 24.99C104.513 24.3967 104.66 23.74 104.66 23.02C104.66 22.24 104.507 21.56 104.2 20.98C103.887 20.4067 103.467 19.9633 102.94 19.65C102.407 19.3367 101.813 19.18 101.16 19.18C100.487 19.18 99.8867 19.3467 99.36 19.68C98.8333 20.0067 98.4167 20.46 98.11 21.04C97.81 21.6267 97.66 22.2967 97.66 23.05C97.66 23.77 97.8067 24.42 98.1 25C98.3933 25.5867 98.8 26.0533 99.32 26.4C99.84 26.74 100.453 26.91 101.16 26.91ZM112.9 29.29C111.907 29.29 111.053 29.08 110.34 28.66C109.627 28.2467 109.08 27.6533 108.7 26.88C108.313 26.1 108.12 25.1833 108.12 24.13V17.1H110.83V23.74C110.83 24.7333 111.067 25.5233 111.54 26.11C112.013 26.69 112.713 26.98 113.64 26.98C114.587 26.98 115.323 26.6767 115.85 26.07C116.377 25.4633 116.64 24.6233 116.64 23.55V17.1H119.35V29H116.71L116.66 27.37C116.26 27.9767 115.727 28.4467 115.06 28.78C114.387 29.12 113.667 29.29 112.9 29.29ZM125.47 29.29C124.557 29.29 123.713 29.1267 122.94 28.8C122.167 28.4667 121.533 27.9967 121.04 27.39C120.553 26.7833 120.28 26.0733 120.22 25.26H122.95C123.05 25.82 123.327 26.27 123.78 26.61C124.233 26.9567 124.79 27.13 125.45 27.13C126.043 27.13 126.533 27 126.92 26.74C127.313 26.4867 127.51 26.1367 127.51 25.69C127.51 25.3033 127.373 25.0033 127.1 24.79C126.833 24.57 126.5 24.4 126.1 24.28C125.7 24.16 125.283 24.0533 124.85 23.96C124.097 23.7867 123.397 23.57 122.75 23.31C122.103 23.0567 121.58 22.6967 121.18 22.23C120.78 21.77 120.58 21.1633 120.58 20.41C120.58 19.6567 120.787 19.0133 121.2 18.48C121.613 17.94 122.17 17.5267 122.87 17.24C123.563 16.9533 124.343 16.81 125.21 16.81C126.523 16.81 127.613 17.1367 128.48 17.79C129.353 18.45 129.84 19.41 129.94 20.67H127.34C127.28 20.13 127.053 19.7133 126.66 19.42C126.267 19.1333 125.76 18.99 125.14 18.99C124.593 18.99 124.14 19.0933 123.78 19.3C123.42 19.5133 123.24 19.85 123.24 20.31C123.24 20.63 123.373 20.8933 123.64 21.1C123.9 21.3133 124.233 21.4867 124.64 21.62C125.053 21.7533 125.46 21.87 125.86 21.97C126.673 22.1633 127.4 22.3867 128.04 22.64C128.68 22.8933 129.187 23.2533 129.56 23.72C129.94 24.1867 130.137 24.82 130.15 25.62C130.15 26.3867 129.943 27.04 129.53 27.58C129.11 28.1267 128.55 28.5467 127.85 28.84C127.143 29.14 126.35 29.29 125.47 29.29ZM134.16 29H131.42V12.2H134.16L142.39 24.51V12.2H145.13V29H142.39L134.16 16.71V29ZM150.38 29.29C149.647 29.29 148.963 29.15 148.33 28.87C147.697 28.59 147.193 28.1767 146.82 27.63C146.447 27.09 146.26 26.4433 146.26 25.69C146.26 24.79 146.483 24.06 146.93 23.5C147.377 22.94 147.983 22.53 148.75 22.27C149.517 22.0033 150.367 21.87 151.3 21.87H154.27C154.27 21.23 154.167 20.7067 153.96 20.3C153.753 19.8933 153.467 19.59 153.1 19.39C152.727 19.19 152.293 19.09 151.8 19.09C151.16 19.09 150.6 19.2333 150.12 19.52C149.64 19.8067 149.343 20.28 149.23 20.94H146.5C146.58 20.0733 146.87 19.3333 147.37 18.72C147.877 18.1 148.52 17.6267 149.3 17.3C150.087 16.9733 150.927 16.81 151.82 16.81C152.973 16.81 153.93 17.02 154.69 17.44C155.45 17.8667 156.027 18.4567 156.42 19.21C156.813 19.9633 157.01 20.8333 157.01 21.82V25.45C157.023 25.8833 157.13 26.1933 157.33 26.38C157.53 26.5733 157.847 26.68 158.28 26.7V29C157.607 29 157.03 28.9267 156.55 28.78C156.07 28.64 155.673 28.4267 155.36 28.14C155.053 27.8467 154.803 27.47 154.61 27.01C154.223 27.65 153.66 28.19 152.92 28.63C152.173 29.07 151.327 29.29 150.38 29.29ZM151.08 27.08C151.707 27.08 152.253 26.9333 152.72 26.64C153.193 26.34 153.57 25.94 153.85 25.44C154.13 24.9333 154.27 24.3767 154.27 23.77V23.7H151.49C151.07 23.7 150.67 23.7533 150.29 23.86C149.903 23.9733 149.6 24.1533 149.38 24.4C149.153 24.6533 149.04 24.9933 149.04 25.42C149.04 26 149.24 26.42 149.64 26.68C150.04 26.9467 150.52 27.08 151.08 27.08ZM164.62 29H161.38L156.89 17.1H159.77L163.01 26.5L166.25 17.1H169.1L164.62 29ZM170.86 15.2C170.36 15.2 169.933 15.0233 169.58 14.67C169.233 14.3167 169.06 13.8933 169.06 13.4C169.06 12.9067 169.233 12.4867 169.58 12.14C169.933 11.7933 170.36 11.62 170.86 11.62C171.353 11.62 171.777 11.7933 172.13 12.14C172.483 12.4867 172.66 12.9067 172.66 13.4C172.66 13.8933 172.483 14.3167 172.13 14.67C171.777 15.0233 171.353 15.2 170.86 15.2ZM172.22 29H169.49V17.1H172.22V29ZM178.7 34.57C177.66 34.57 176.71 34.45 175.85 34.21C174.983 33.97 174.29 33.5767 173.77 33.03C173.25 32.49 172.99 31.77 172.99 30.87C172.99 30.2767 173.123 29.7733 173.39 29.36C173.65 28.9467 174.03 28.6033 174.53 28.33C174.13 28.09 173.817 27.79 173.59 27.43C173.37 27.07 173.26 26.6567 173.26 26.19C173.26 25.17 173.74 24.37 174.7 23.79C174.347 23.4233 174.077 23.0067 173.89 22.54C173.71 22.08 173.62 21.5867 173.62 21.06C173.62 20.18 173.823 19.4233 174.23 18.79C174.637 18.1567 175.203 17.6667 175.93 17.32C176.657 16.98 177.493 16.81 178.44 16.81C179.113 16.81 179.747 16.9067 180.34 17.1H184.54V19.21H182.81C182.937 19.4967 183.043 19.7933 183.13 20.1C183.217 20.4 183.26 20.72 183.26 21.06C183.26 21.9067 183.047 22.65 182.62 23.29C182.187 23.93 181.61 24.42 180.89 24.76C180.17 25.1067 179.353 25.28 178.44 25.28C178.027 25.28 177.643 25.24 177.29 25.16C176.937 25.08 176.593 24.96 176.26 24.8C175.887 24.9933 175.7 25.29 175.7 25.69C175.7 26.4233 176.317 26.79 177.55 26.79H179.66C180.607 26.79 181.42 26.9133 182.1 27.16C182.78 27.4133 183.303 27.8133 183.67 28.36C184.037 28.9133 184.22 29.6233 184.22 30.49C184.22 31.35 183.97 32.0867 183.47 32.7C182.963 33.3067 182.29 33.77 181.45 34.09C180.61 34.41 179.693 34.57 178.7 34.57ZM178.68 32.41C179.513 32.41 180.22 32.2667 180.8 31.98C181.387 31.6867 181.68 31.2533 181.68 30.68C181.68 29.5933 180.96 29.05 179.52 29.05H177.7C177.007 29.05 176.473 29.19 176.1 29.47C175.727 29.75 175.54 30.1533 175.54 30.68C175.54 31.1133 175.683 31.4533 175.97 31.7C176.257 31.9467 176.64 32.1267 177.12 32.24C177.6 32.3533 178.12 32.41 178.68 32.41ZM178.39 23.12C179.077 23.12 179.64 22.9267 180.08 22.54C180.52 22.16 180.74 21.6667 180.74 21.06C180.74 20.4467 180.52 19.9467 180.08 19.56C179.64 19.1667 179.077 18.97 178.39 18.97C177.717 18.97 177.17 19.1667 176.75 19.56C176.323 19.9467 176.11 20.4467 176.11 21.06C176.11 21.6667 176.313 22.16 176.72 22.54C177.133 22.9267 177.69 23.12 178.39 23.12ZM188.66 29.29C187.927 29.29 187.243 29.15 186.61 28.87C185.977 28.59 185.473 28.1767 185.1 27.63C184.727 27.09 184.54 26.4433 184.54 25.69C184.54 24.79 184.763 24.06 185.21 23.5C185.657 22.94 186.263 22.53 187.03 22.27C187.797 22.0033 188.647 21.87 189.58 21.87H192.55C192.55 21.23 192.447 20.7067 192.24 20.3C192.033 19.8933 191.747 19.59 191.38 19.39C191.007 19.19 190.573 19.09 190.08 19.09C189.44 19.09 188.88 19.2333 188.4 19.52C187.92 19.8067 187.623 20.28 187.51 20.94H184.78C184.86 20.0733 185.15 19.3333 185.65 18.72C186.157 18.1 186.8 17.6267 187.58 17.3C188.367 16.9733 189.207 16.81 190.1 16.81C191.253 16.81 192.21 17.02 192.97 17.44C193.73 17.8667 194.307 18.4567 194.7 19.21C195.093 19.9633 195.29 20.8333 195.29 21.82V25.45C195.303 25.8833 195.41 26.1933 195.61 26.38C195.81 26.5733 196.127 26.68 196.56 26.7V29C195.887 29 195.31 28.9267 194.83 28.78C194.35 28.64 193.953 28.4267 193.64 28.14C193.333 27.8467 193.083 27.47 192.89 27.01C192.503 27.65 191.94 28.19 191.2 28.63C190.453 29.07 189.607 29.29 188.66 29.29ZM189.36 27.08C189.987 27.08 190.533 26.9333 191 26.64C191.473 26.34 191.85 25.94 192.13 25.44C192.41 24.9333 192.55 24.3767 192.55 23.77V23.7H189.77C189.35 23.7 188.95 23.7533 188.57 23.86C188.183 23.9733 187.88 24.1533 187.66 24.4C187.433 24.6533 187.32 24.9933 187.32 25.42C187.32 26 187.52 26.42 187.92 26.68C188.32 26.9467 188.8 27.08 189.36 27.08ZM203.23 29H201.34C200.12 29 199.19 28.7033 198.55 28.11C197.91 27.5167 197.59 26.5733 197.59 25.28V19.38H195.89V17.1H197.59V14.22H200.33V17.1H203.23V19.38H200.33V25.3C200.33 25.8467 200.457 26.22 200.71 26.42C200.97 26.62 201.353 26.72 201.86 26.72H203.23V29ZM209.57 29.29C208.403 29.29 207.353 29.0333 206.42 28.52C205.493 28.0067 204.763 27.2833 204.23 26.35C203.69 25.41 203.42 24.31 203.42 23.05C203.42 21.75 203.7 20.6367 204.26 19.71C204.82 18.7833 205.573 18.0667 206.52 17.56C207.467 17.06 208.513 16.81 209.66 16.81C210.833 16.81 211.887 17.06 212.82 17.56C213.753 18.0667 214.497 18.7833 215.05 19.71C215.603 20.6367 215.88 21.75 215.88 23.05C215.88 24.25 215.613 25.32 215.08 26.26C214.54 27.2067 213.793 27.9467 212.84 28.48C211.893 29.02 210.803 29.29 209.57 29.29ZM209.59 26.94C210.277 26.94 210.88 26.7667 211.4 26.42C211.92 26.0733 212.333 25.6067 212.64 25.02C212.947 24.4267 213.1 23.7533 213.1 23C213.1 22.2133 212.947 21.5333 212.64 20.96C212.333 20.3867 211.92 19.9433 211.4 19.63C210.88 19.3167 210.287 19.16 209.62 19.16C208.913 19.16 208.3 19.3267 207.78 19.66C207.26 20 206.863 20.46 206.59 21.04C206.317 21.6267 206.18 22.2967 206.18 23.05C206.18 23.8633 206.337 24.5633 206.65 25.15C206.963 25.73 207.38 26.1733 207.9 26.48C208.42 26.7867 208.983 26.94 209.59 26.94ZM219.5 29H216.79V17.1H219.43L219.48 19.04C219.88 18.3333 220.42 17.7867 221.1 17.4C221.78 17.0067 222.567 16.81 223.46 16.81V19.66H222.72C221.633 19.66 220.827 19.9333 220.3 20.48C219.767 21.0267 219.5 21.8733 219.5 23.02V29Z" fill="#7757FF"/>
</svg>
